<svg width="30" height="15" viewBox="0 0 30 15" fill="none" xmlns="http://www.w3.org/2000/svg">
<g clip-path="url(#clip0_2_3468)">
<path fill-rule="evenodd" clip-rule="evenodd" d="M7.39998 13.3H14.2L17.3 1.70001H7.39998C4.19998 1.70001 1.59998 4.30001 1.59998 7.50001C1.59998 10.7 4.19998 13.3 7.39998 13.3Z" fill="white"/>
<path fill-rule="evenodd" clip-rule="evenodd" d="M22.6 0.5H7.40002C3.50002 0.5 0.400024 3.6 0.400024 7.5C0.400024 11.4 3.50002 14.5 7.40002 14.5H22.6C26.5 14.5 29.6 11.4 29.6 7.5C29.6 3.6 26.4 0.5 22.6 0.5ZM1.60002 7.5C1.60002 4.3 4.20002 1.7 7.40002 1.7H17.3L14.2 13.3H7.40002C4.20002 13.3 1.60002 10.7 1.60002 7.5Z" fill="#0066FF"/>
<path d="M24.6 4.49998C24.8 4.69998 24.8 5.09998 24.6 5.29998L22.5 7.49998L24.7 9.69998C24.9 9.89998 24.9 10.3 24.7 10.5C24.5 10.7 24.1 10.7 23.9 10.5L21.7 8.29998L19.5 10.5C19.3 10.7 18.9 10.7 18.7 10.5C18.5 10.3 18.5 9.89998 18.7 9.69998L20.8 7.49998L18.6 5.29998C18.4 5.09998 18.4 4.69998 18.6 4.49998C18.8 4.29998 19.2 4.29998 19.4 4.49998L21.6 6.69998L23.8 4.49998C24 4.29998 24.4 4.29998 24.6 4.49998Z" fill="white"/>
<path d="M12.7 4.60001C12.9 4.80001 13 5.20001 12.8 5.40001L8.60003 10.3C8.50003 10.4 8.40003 10.5 8.30003 10.5C8.10003 10.6 7.80003 10.6 7.60003 10.4L5.40003 8.20001C5.20003 8.00001 5.20003 7.60001 5.40003 7.40001C5.60003 7.20001 6.00003 7.20001 6.20003 7.40001L8.00003 9.10001L11.8 4.60001C12 4.40001 12.4 4.40001 12.7 4.60001Z" fill="#0066FF"/>
</g>
<defs>
<clipPath id="clip0_2_3468">
<rect width="30" height="14" fill="white" transform="translate(0 0.5)"/>
</clipPath>
</defs>
</svg>